# xmcd
#
# Track frame offsets:
# 150
# 34349
# 62864
# 82914
# 97280
# 118160
# 144225
#
# Disc length: 2267 seconds
#
# Revision: 0
# Processed by: cddbd v1.5.2PL0 Copyright (c) Steve Scherf et al.
# Submitted via: Audion 3.0.2 (http://www.panic.com/audion/)
#
DISCID=6008d907
DTITLE=The Spark Shyver - Please Love Me Baby
DYEAR=1900
DGENRE=
TTITLE0=Please Love Me Baby
TTITLE1=Misery's Blues
TTITLE2=Wanna Get High
TTITLE3=Around and Around
TTITLE4=Everybody Needs Somebody
TTITLE5=Red house
TTITLE6=Boum Boum
EXTD=
EXTT0=
EXTT1=
EXTT2=
EXTT3=
EXTT4=
EXTT5=
EXTT6=
PLAYORDER=
